<?xml version="1.0" encoding="UTF-8"?>
<!--Generator: Apple Native CoreSVG 341-->
<!DOCTYPE svg
PUBLIC "-//W3C//DTD SVG 1.1//EN"
       "http://www.w3.org/Graphics/SVG/1.1/DTD/svg11.dtd">
<svg version="1.1" xmlns="http://www.w3.org/2000/svg" xmlns:xlink="http://www.w3.org/1999/xlink" viewBox="0 0 16.9751 20.8848">
 <g id="s" transform="matrix(0.17 0 0 0.17 -2.1167 16.4438)">
  <path d="M12.4512 10.791C12.4512 20.9961 17.4805 26.123 27.5879 26.123L73.4863 26.123C83.5938 26.123 88.623 20.9473 88.623 10.791L88.623 1.75781L97.168 1.75781C107.227 1.75781 112.305-3.41797 112.305-13.5742L112.305-81.3965C112.305-91.5527 107.227-96.7285 97.168-96.7285L51.2695-96.7285C41.2109-96.7285 36.1328-91.6016 36.1328-81.3965L36.1328-72.3633L27.5879-72.3633C17.4805-72.3633 12.4512-67.2852 12.4512-57.0312ZM59.1797-82.8613L59.1797-83.8867C59.1797-85.4004 60.1562-86.7676 62.3047-86.7676L86.1328-86.7676C88.2324-86.7676 89.2578-85.4004 89.2578-83.8867L89.2578-82.8613C89.2578-81.3965 88.2324-79.9805 86.1328-79.9805L62.3047-79.9805C60.1562-79.9805 59.1797-81.3965 59.1797-82.8613ZM20.3125 10.6445L20.3125-56.9336C20.3125-61.7676 22.9004-64.502 27.9297-64.502L73.0957-64.502C78.125-64.502 80.7617-61.7676 80.7617-56.9336L80.7617 10.6445C80.7617 15.5273 78.125 18.2617 73.0957 18.2617L27.9297 18.2617C22.9004 18.2617 20.3125 15.5273 20.3125 10.6445ZM29.1992-23.1934C29.1992-21.3867 30.4688-20.0684 32.2754-20.0684L53.418-20.0684L62.1582-20.4102L57.0801-16.0645L52.2949-11.377C51.709-10.791 51.3672-10.0586 51.3672-9.17969C51.3672-7.51953 52.6367-6.15234 54.3457-6.15234C55.1758-6.15234 55.9082-6.49414 56.4453-7.03125L70.1172-20.752C70.8984-21.5332 71.3379-22.2168 71.3379-23.1934C71.3379-24.0234 70.9473-24.707 70.1172-25.5371L56.4453-39.3066C55.9082-39.8438 55.1758-40.1367 54.3457-40.1367C52.6367-40.1367 51.3672-38.8184 51.3672-37.1582C51.3672-36.2793 51.7578-35.5469 52.2949-34.9609L57.0801-30.2246L62.1582-25.9277L53.418-26.2207L32.2754-26.2207C30.5176-26.2207 29.1992-25 29.1992-23.1934Z"/>
 </g>
</svg>
