<?xml version="1.0" encoding="UTF-8"?>
<!--Generator: Apple Native CoreSVG 341-->
<!DOCTYPE svg
PUBLIC "-//W3C//DTD SVG 1.1//EN"
       "http://www.w3.org/Graphics/SVG/1.1/DTD/svg11.dtd">
<svg version="1.1" xmlns="http://www.w3.org/2000/svg" xmlns:xlink="http://www.w3.org/1999/xlink" viewBox="0 0 15.2818 15.2817">
 <g id="s" transform="matrix(0.17 0 0 0.17 -2.1167 13.6216)">
  <path d="M27.7832 9.76562L87.0117 9.76562C97.2656 9.76562 102.344 4.6875 102.344-5.37109L102.344-64.9902C102.344-75.0488 97.2656-80.127 87.0117-80.127L27.7832-80.127C17.5781-80.127 12.4512-75.0977 12.4512-64.9902L12.4512-5.37109C12.4512 4.73633 17.5781 9.76562 27.7832 9.76562ZM27.8809 1.9043C22.998 1.9043 20.3125-0.683594 20.3125-5.76172L20.3125-64.5996C20.3125-69.6777 22.998-72.2656 27.8809-72.2656L86.9141-72.2656C91.748-72.2656 94.4824-69.6777 94.4824-64.5996L94.4824-5.76172C94.4824-0.683594 91.748 1.9043 86.9141 1.9043ZM37.3047-63.5254C33.252-63.5254 30.3223-60.3516 30.3223-56.1035C30.3223-49.7559 37.1582-44.1895 41.9922-40.7715C42.4316-40.4785 42.9199-40.2344 43.2129-40.2344C43.5547-40.2344 43.9453-40.5273 44.4336-40.7715C49.3652-43.8477 56.0547-49.7559 56.0547-56.1035C56.0547-60.3516 53.0762-63.5254 48.9258-63.5254C46.4355-63.5254 44.3848-62.0117 43.1641-59.7656C41.9434-62.0117 39.9414-63.5254 37.3047-63.5254ZM33.3984-26.0254L81.4941-26.0254C83.2031-26.0254 84.4727-27.3438 84.4727-29.0527C84.4727-30.7129 83.2031-32.0312 81.4941-32.0312L33.3984-32.0312C31.5918-32.0312 30.3223-30.7129 30.3223-29.0527C30.3223-27.3438 31.5918-26.0254 33.3984-26.0254ZM33.3984-9.32617L68.6035-9.32617C70.3613-9.32617 71.6309-10.6445 71.6309-12.3047C71.6309-14.0137 70.3613-15.332 68.6035-15.332L33.3984-15.332C31.5918-15.332 30.3223-14.0137 30.3223-12.3047C30.3223-10.6445 31.5918-9.32617 33.3984-9.32617Z"/>
 </g>
</svg>
