<?xml version="1.0" encoding="UTF-8"?>
<!--Generator: Apple Native CoreSVG 341-->
<!DOCTYPE svg
PUBLIC "-//W3C//DTD SVG 1.1//EN"
       "http://www.w3.org/Graphics/SVG/1.1/DTD/svg11.dtd">
<svg version="1.1" xmlns="http://www.w3.org/2000/svg" xmlns:xlink="http://www.w3.org/1999/xlink" width="10.8657" height="20.7685" viewBox="0 0 10.8657 20.7685">
 <g id="s" transform="matrix(0.17 0 0 0.17 -2.1167 16.3027)">
  <path d="M44.4336-95.8984C26.6113-95.8984 12.4512-81.6895 12.4512-63.9648C12.4512-50.8301 20.166-39.209 32.373-34.3262L32.373 12.9883C32.373 14.4043 32.8125 15.6738 33.8867 16.748L42.3828 24.9512C43.457 26.0254 45.5078 26.2695 46.875 24.9023L62.2559 9.52148C63.6719 8.10547 63.623 6.05469 62.2559 4.6875L53.418-4.05273L65.8203-16.4551C67.0898-17.7734 67.1387-19.8242 65.7227-21.2402L53.6621-33.3496C68.2617-39.5508 76.3672-50.7324 76.3672-63.9648C76.3672-81.6406 62.1582-95.8984 44.4336-95.8984ZM44.4336-66.2109C39.6973-66.2109 35.8398-70.0684 35.8398-74.8047C35.8398-79.5898 39.6484-83.3984 44.4336-83.3984C49.1699-83.3984 53.0273-79.541 53.0273-74.8047C53.0273-70.0684 49.1699-66.2109 44.4336-66.2109Z"/>
 </g>
</svg>
